<svg xmlns="http://www.w3.org/2000/svg" viewBox="0 0 236 48" role="img" aria-labelledby="title">
  <title id="title">PicoAide</title>
  <defs>
    <linearGradient id="mark-bg" x1="4" y1="4" x2="44" y2="44" gradientUnits="userSpaceOnUse">
      <stop stop-color="#0f172a"/>
      <stop offset="1" stop-color="#163b73"/>
    </linearGradient>
    <linearGradient id="mark-line" x1="13" y1="12" x2="34" y2="35" gradientUnits="userSpaceOnUse">
      <stop stop-color="#5eead4"/>
      <stop offset=".55" stop-color="#60a5fa"/>
      <stop offset="1" stop-color="#2563eb"/>
    </linearGradient>
  </defs>
  <rect x="2" y="2" width="44" height="44" rx="11" fill="url(#mark-bg)"/>
  <path d="M15 34V14h12.3c5 0 8.2 3.1 8.2 7.5s-3.2 7.4-8.2 7.4H21v5.1h-6Zm6-10.4h5.8c1.8 0 2.9-.8 2.9-2.2 0-1.5-1.1-2.3-2.9-2.3H21v4.5Z" fill="#f8fafc"/>
  <path d="M13 36.5h22M13 11.5h15.5" stroke="url(#mark-line)" stroke-width="3" stroke-linecap="round"/>
  <circle cx="36" cy="13" r="3.4" fill="#5eead4"/>
  <circle cx="36" cy="35" r="3.4" fill="#60a5fa"/>
  <text x="58" y="31" font-family="Inter, Microsoft YaHei, sans-serif" font-size="24" font-weight="760" letter-spacing="0" fill="#0f172a">PicoAide</text>
</svg>
